<?xml version="1.0" standalone="no"?>
<!DOCTYPE svg PUBLIC "-//W3C//DTD SVG 20010904//EN"
 "http://www.w3.org/TR/2001/REC-SVG-20010904/DTD/svg10.dtd">
<svg version="1.0" xmlns="http://www.w3.org/2000/svg"
 width="512.000000pt" height="512.000000pt" viewBox="0 0 512.000000 512.000000"
 preserveAspectRatio="xMidYMid meet">

<g transform="translate(0.000000,512.000000) scale(0.100000,-0.100000)"
fill="#000000" stroke="none">
<path d="M2550 4981 c0 -7 -28 -11 -71 -11 -123 0 -341 -27 -489 -62 -106 -24
-252 -68 -265 -79 -5 -5 -16 -9 -25 -9 -8 0 -28 -7 -44 -15 -15 -8 -32 -15
-36 -15 -18 0 -242 -111 -262 -130 -11 -10 -41 -29 -66 -40 -51 -24 -192 -118
-192 -128 0 -4 -14 -13 -31 -21 -36 -16 -311 -284 -394 -384 -67 -81 -215
-304 -215 -323 0 -8 -4 -14 -10 -14 -5 0 -12 -11 -16 -25 -3 -14 -10 -25 -14
-25 -8 0 -108 -234 -141 -329 -71 -202 -129 -508 -129 -678 0 -42 -4 -63 -12
-63 -9 0 -9 -3 0 -12 8 -8 12 -56 12 -147 0 -326 90 -688 250 -1011 122 -246
246 -417 449 -620 127 -126 323 -287 363 -298 10 -2 18 -8 18 -13 0 -5 6 -9
14 -9 8 0 21 -6 28 -13 7 -6 30 -21 51 -32 20 -11 37 -23 37 -27 0 -5 9 -8 20
-8 11 0 23 -7 26 -15 4 -8 14 -15 24 -15 11 0 21 -4 24 -9 8 -12 225 -104 331
-139 90 -30 276 -75 390 -94 73 -13 635 -26 635 -15 0 4 17 7 38 7 50 0 245
35 341 62 42 11 90 24 106 28 59 14 212 73 310 120 115 55 349 197 399 243 11
9 23 17 27 17 30 0 352 313 412 400 30 43 51 71 73 94 15 16 93 140 143 226
23 41 47 82 52 90 111 184 228 578 250 845 11 133 8 582 -4 615 -3 8 -11 47
-17 85 -51 295 -155 580 -289 790 -14 22 -37 60 -51 85 -25 45 -52 86 -122
182 -85 117 -270 308 -386 398 -18 14 -39 31 -47 38 -7 6 -16 12 -20 12 -3 0
-11 5 -18 11 -14 12 -237 159 -242 159 -2 0 -34 17 -72 39 -37 21 -97 51 -133
66 -36 15 -79 34 -96 41 -27 12 -92 33 -248 80 -120 37 -300 67 -466 78 -96 6
-181 15 -187 19 -8 5 -13 4 -13 -2z m1036 -885 c7 -18 -136 -284 -295 -548
-62 -103 -81 -141 -81 -163 l0 -25 359 0 c275 0 361 -3 369 -12 5 -7 12 -90
14 -185 3 -153 2 -172 -14 -182 -11 -7 -170 -11 -482 -11 -517 -1 -483 3 -524
-70 -11 -19 -59 -104 -106 -188 -48 -85 -92 -166 -97 -180 -6 -15 -13 -29 -17
-32 -4 -3 -15 -21 -26 -40 -32 -61 -62 -114 -86 -155 -62 -106 -72 -127 -66
-140 5 -13 96 -15 699 -15 540 0 697 -3 710 -13 16 -11 17 -31 15 -187 l-3
-174 -25 -13 c-20 -10 -199 -13 -817 -13 -537 0 -800 -3 -815 -11 -22 -10 -56
-60 -103 -154 -11 -22 -23 -41 -27 -43 -5 -2 -8 -8 -8 -14 0 -18 -252 -475
-277 -502 -24 -26 -24 -26 -183 -26 -142 0 -160 2 -168 18 -6 11 -4 26 7 44 9
15 69 120 134 235 65 114 123 215 128 223 5 8 14 27 20 43 6 15 14 27 18 27 3
0 15 20 26 45 11 25 23 45 28 45 4 0 7 16 7 35 l0 35 -352 0 c-313 0 -353 2
-370 17 -16 14 -18 34 -18 183 0 116 4 170 12 178 9 9 125 12 463 12 l450 0
44 73 c56 91 113 180 120 187 3 3 11 13 16 22 6 9 79 121 163 249 114 174 152
240 152 263 l0 31 -697 -2 c-632 -2 -699 -1 -715 14 -16 14 -18 35 -18 176 0
151 1 162 22 184 l21 23 811 0 c446 0 817 4 823 8 7 4 37 53 66 108 30 54 86
155 124 224 39 69 100 184 138 255 37 72 72 136 77 143 16 18 347 17 354 -2z"/>
</g>
</svg>
